HIERARCHY
ROOT Hips
{
  OFFSET -102.467 93.6631 130.069
  CHANNELS 6 Xposition Yposition Zposition Zrotation Xrotation Yrotation
  JOINT LeftUpLeg
  {
    OFFSET 8.64259 1.95398 -2.38835
    CHANNELS 3 Zrotation Xrotation Yrotation
    JOINT LeftLeg
    {
      OFFSET 43.7702 0 0
      CHANNELS 3 Zrotation Xrotation Yrotation
      JOINT LeftFoot
      {
        OFFSET 40.6238 0 0
        CHANNELS 3 Zrotation Xrotation Yrotation
        JOINT LeftToeBase
        {
          OFFSET 12.7242 0 0
          CHANNELS 3 Zrotation Xrotation Yrotation
          End Site
          {
            OFFSET 0 0 0
          }
        }
      }
    }
  }
  JOINT RightUpLeg
  {
    OFFSET -8.2249 1.95398 -2.59336
    CHANNELS 3 Zrotation Xrotation Yrotation
    JOINT RightLeg
    {
      OFFSET 43.5653 0 0
      CHANNELS 3 Zrotation Xrotation Yrotation
      JOINT RightFoot
      {
        OFFSET 40.6238 0 0
        CHANNELS 3 Zrotation Xrotation Yrotation
        JOINT RightToeBase
        {
          OFFSET 12.7242 0 0
          CHANNELS 3 Zrotation Xrotation Yrotation
          End Site
          {
            OFFSET 0 0 0
          }
        }
      }
    }
  }
  JOINT Spine
  {
    OFFSET 0.165834 0.87714 6.61349
    CHANNELS 3 Zrotation Xrotation Yrotation
    JOINT Spine1
    {
      OFFSET 7.38963 1.71661e-005 0
      CHANNELS 3 Zrotation Xrotation Yrotation
      JOINT Spine2
      {
        OFFSET 11.9445 1.14441e-005 0
        CHANNELS 3 Zrotation Xrotation Yrotation
        JOINT Spine3
        {
          OFFSET 14.7254 4.19617e-005 0
          CHANNELS 3 Zrotation Xrotation Yrotation
          JOINT Spine4
          {
            OFFSET 10.9679 0 0
            CHANNELS 3 Zrotation Xrotation Yrotation
            JOINT RightShoulder
            {
              OFFSET 2.46616 -1.6653 3.69651
              CHANNELS 3 Zrotation Xrotation Yrotation
              JOINT RightArm
              {
                OFFSET 13.0012 0 0
                CHANNELS 3 Zrotation Xrotation Yrotation
                JOINT RightForeArm
                {
                  OFFSET 28.7848 1.52588e-005 0
                  CHANNELS 3 Zrotation Xrotation Yrotation
                  JOINT RightHand
                  {
                    OFFSET 26.5688 1.52588e-005 0
                    CHANNELS 3 Zrotation Xrotation Yrotation
                    End Site
                    {
                      OFFSET 0 0 0
                    }
                  }
                }
              }
            }
            JOINT LeftShoulder
            {
              OFFSET 2.38034 -1.29275 -3.7523
              CHANNELS 3 Zrotation Xrotation Yrotation
              JOINT LeftArm
              {
                OFFSET 16.3182 6.10351e-005 0
                CHANNELS 3 Zrotation Xrotation Yrotation
                JOINT LeftForeArm
                {
                  OFFSET 27.0901 0 0
                  CHANNELS 3 Zrotation Xrotation Yrotation
                  JOINT LeftHand
                  {
                    OFFSET 24.5451 1.52588e-005 0
                    CHANNELS 3 Zrotation Xrotation Yrotation
                    End Site
                    {
                      OFFSET 0 0 0
                    }
                  }
                }
              }
            }
            JOINT Neck
            {
              OFFSET 5.0226 -0.0266342 0
              CHANNELS 3 Zrotation Xrotation Yrotation
              JOINT Head
              {
                OFFSET 6.69363 2.86102e-005 0
                CHANNELS 3 Zrotation Xrotation Yrotation
                End Site
                {
                  OFFSET 0 0 0
                }
              }
            }
          }
        }
      }
    }
  }
}
MOTION
Frames:	12
Frame Time:	0.0416667
-285.555 93.3485 290.013 88.6757 37.9763 88.6648 -169.278 -10.1801 90.4009 1.08438 13.5545 -4.67224 64.1077 3.86505 12.2909 34.4864 -0.978471 -2.70894 175.445 -0.0357668 86.7461 -17.596 -5.71791 -1.92182 72.9802 5.24443 14.7464 21.4376 2.25149 5.68626 1.26016 5.4089 -89.2377 16.0463 2.8732 1.07017 4.37817 2.91755 0.942569 -18.1728 2.41875 1.88452 1.83987 2.41875 1.88452 133.978 -44.0526 -30.87 34.8183 -28.6369 2.92876 -9.30419 -25.153 -25.6518 -10.2083 -0.765746 3.69455 -59.7922 -34.9619 129.449 -41.4744 14.6179 -11.9798 168.044 75.0262 -179.93 22.4611 9.93118 39.053 19.4311 -24.9044 -15.0813 -54.1555 -23.405 7.29275 
-285.696 93.3832 290.158 88.6709 38.1277 88.3769 -169.457 -10.0339 90.1075 0.991068 13.3617 -4.68701 63.9769 3.78878 12.1624 34.6084 -0.997671 -2.72516 175.41 0.326586 86.5491 -18.0328 -6.35825 -1.93041 72.7582 4.9731 13.8606 22.1232 2.11236 5.54247 1.21959 5.44211 -89.1615 15.9772 2.83164 1.23291 4.30889 2.88314 1.107 -18.2396 2.33021 2.02716 1.77301 2.33019 2.02715 134.222 -44.3779 -30.7029 34.8802 -28.734 2.35438 -9.0324 -25.3517 -25.2719 -10.5703 -0.814245 3.92863 -59.8909 -34.44 129.499 -41.756 14.6402 -12.3221 167.982 74.4473 -179.933 22.2845 10.1544 40.2188 20.5198 -25.3388 -15.5794 -55.0292 -23.7739 7.6934 
-286.082 93.5201 290.542 88.5098 38.6003 87.8107 -169.95 -9.58572 89.3871 1.01716 13.6117 -4.70896 63.533 3.8273 12.4001 34.5933 -1.00634 -2.81332 175.329 0.962326 86.0455 -18.3155 -6.19973 -2.01056 72.7122 4.87723 13.7862 22.0968 2.05435 4.9014 1.11612 5.46073 -89.0803 15.9375 2.66824 1.4245 4.26865 2.72835 1.30562 -18.2753 2.11682 2.16064 1.7373 2.11685 2.16064 134.045 -44.9881 -31.3225 34.4978 -28.6658 2.15948 -8.88448 -24.8937 -25.0023 -10.2522 -0.703764 2.92875 -60.0237 -34.507 129.238 -41.7536 14.5669 -12.3879 167.851 72.92 -179.939 22.7682 10.9821 42.6103 21.5264 -25.1667 -14.7569 -56.3014 -23.5095 7.00277 
-286.663 93.7069 291.106 88.3045 39.3708 86.9535 -170.862 -8.93479 88.245 1.07458 13.8308 -4.57476 62.6208 3.58056 12.3418 35.2112 -1.02004 -2.22322 174.975 2.46664 85.1753 -19.8944 -6.12453 -1.82004 72.4254 4.64001 12.6627 22.9378 2.04794 6.27359 0.953446 5.5049 -88.9671 15.8458 2.40378 1.69765 4.17609 2.47616 1.59019 -18.3611 1.78255 2.34151 1.65152 1.78256 2.34152 133.791 -45.9632 -32.2573 33.8023 -28.545 1.49216 -8.22871 -24.349 -24.16 -10.8645 -0.672486 2.09341 -60.0598 -34.914 129.003 -41.4036 14.622 -12.7975 167.691 71.393 -179.944 22.9477 11.7996 45.3615 23.7402 -24.7972 -13.1231 -58.8644 -22.9549 5.70306 
-287.377 94.0617 291.861 88.1949 40.4785 85.8404 -171.745 -8.14329 87.0155 1.12842 14.4067 -4.5771 61.6958 3.61213 12.5924 35.4027 -1.02897 -2.07928 174.954 3.76573 84.4134 -20.7418 -5.16026 -2.07244 71.7386 4.81775 12.8993 24.0461 1.84128 6.21853 0.739877 5.57047 -88.8223 15.7116 2.05419 2.04836 4.04081 2.14236 1.95598 -18.4879 1.34383 2.5708 1.52472 1.34384 2.5708 133.554 -47.3511 -33.3795 32.9638 -28.6947 1.03059 -8.07684 -23.7668 -24.2814 -10.9422 -0.699528 2.3395 -60.3715 -35.1662 128.355 -41.0798 14.9604 -13.1015 167.407 71.1745 -179.944 23.1365 12.4592 47.44 25.89 -24.6211 -12.0403 -60.8693 -22.7328 5.13784 
-288.11 94.4328 292.695 88.0221 41.927 84.6137 -173.087 -7.05471 85.3565 0.939156 15.654 -4.33594 60.2131 3.95632 14.3288 37.4782 -1.3274 -2.19157 174.844 5.86683 83.6481 -23.0978 -5.36565 -2.08483 70.9409 3.82632 10.608 26.0296 1.45684 5.96258 0.475551 5.64427 -88.6646 15.5623 1.60991 2.43858 3.89022 1.71564 2.3654 -18.6292 0.802939 2.80941 1.38345 0.802926 2.8094 133.206 -48.7963 -34.6646 32.2861 -28.829 0.644196 -8.40522 -23.4357 -25.2244 -10.419 -0.935978 5.46619 -60.8841 -35.3852 127.373 -40.7438 15.3669 -13.2963 167.271 73.1719 -179.938 24.028 12.9958 47.7587 28.2526 -24.3034 -11.0674 -62.8656 -22.4837 4.88828 
-288.767 94.626 293.526 88.127 43.7946 83.1438 -174.672 -5.32671 83.63 -1.10409 15.8274 -3.67393 60.0868 4.48357 14.4086 38.8191 -1.44042 -1.74839 174.776 7.56038 82.6264 -25.4094 -2.98013 -2.41215 71.5429 4.61597 12.4763 25.794 1.27942 4.32237 0.16166 5.7587 -88.5061 15.3344 1.06646 2.84415 3.66094 1.19054 2.7945 -18.8495 0.162814 3.033 1.16315 0.1628 3.033 132.825 -50.8319 -36.2672 31.124 -28.1625 0.163853 -7.93992 -22.2097 -25.0211 -10.399 -0.945588 5.60055 -61.5918 -36.1334 125.855 -39.9124 15.6368 -13.582 167.567 76.9566 -179.92 24.307 12.1904 44.4036 30.8749 -24.0963 -10.632 -63.9792 -22.8057 6.04296 
-289.148 94.6768 294.122 88.0677 46.0423 81.8511 -176.103 -3.81994 82.155 -2.68365 16.5348 -3.04956 60.0478 4.40886 13.8406 40.127 -1.4975 -1.03083 173.806 8.78289 81.2351 -26.6378 -3.83754 -1.69437 70.8377 3.69152 9.94048 28.9105 0.803183 5.0966 -0.196738 5.84683 -88.3908 15.1635 0.413207 3.17557 3.48875 0.552528 3.15433 -19.0158 -0.559772 3.15305 0.996862 -0.559765 3.15306 132.254 -52.9926 -38.1422 29.5575 -26.9271 -0.140683 -7.67846 -21.0039 -24.875 -10.5313 -0.936958 5.37031 -62.5968 -37.1942 123.736 -39.3208 15.1626 -14.4195 168.54 75.3854 179.744 25.5092 10.0483 37.61 32.914 -23.0021 -9.79948 -65.342 -22.1401 6.42876 
-289.217 94.5436 294.497 88.3201 48.6269 80.3309 -177.894 -2.54749 80.5583 -4.50104 16.6457 -2.06362 60.1487 4.5963 13.1645 40.6095 -1.50826 -0.73595 172.88 9.50363 79.6867 -27.879 -1.9101 -1.29974 71.6813 4.3825 11.6194 27.7661 1.06593 5.44612 -0.589806 5.97206 -88.313 14.9225 -0.329345 3.44069 3.24705 -0.177674 3.45182 -19.256 -1.34767 3.18313 0.756638 -1.34766 3.18313 131.425 -55.1364 -40.2946 27.672 -25.2456 -0.69264 -7.06005 -19.6081 -24.008 -9.91859 -0.79046 4.27044 -64.0065 -38.201 120.988 -39.5486 13.7024 -15.8628 -2.40069 61.9384 -2.4939 5.63507 -0.134332 -4.99582 34.736 -21.2984 -9.14433 -66.4932 -21.0069 7.08535 
-288.984 94.1933 294.416 89.7931 51.0057 77.8505 178.977 -1.4828 78.1158 -7.36852 14.8979 -0.205459 59.274 5.74968 13.9651 42.7492 -1.87067 -1.32887 171.151 9.8457 77.7152 -30.1576 -2.47871 -0.146665 72.6263 3.65695 10.2462 29.3283 0.924486 6.35663 -0.930362 6.1923 -88.2738 14.493 -0.991504 3.60689 2.81733 -0.831904 3.64695 -19.6887 -2.02918 3.14292 0.323988 -2.02919 3.14292 130.109 -57.8341 -43.2623 25.2071 -23.9902 -0.589925 -6.50187 -18.3651 -23.9992 -10.5616 -1.04354 6.51907 -65.7253 -39.4159 117.713 -38.6334 15.5562 -16.9426 0.832885 57.376 -6.79847 3.12755 -0.209357 -6.73455 35.4606 -18.7449 -8.40281 -66.5272 -19.1479 7.79228 
-288.649 93.3738 294.49 90.1288 53.1073 77.5935 175.144 1.80418 77.5658 -11.0188 11.8634 1.14231 54.2925 5.97274 12.9149 50.2671 -1.2666 4.80889 170.662 11.3426 77.5295 -34.3185 -0.145037 0.454518 75.2239 4.46127 11.9737 27.2188 1.3848 6.93147 -1.1586 6.38619 -88.4236 14.1145 -1.52389 3.37084 2.43991 -1.37415 3.43454 -20.0771 -2.46617 2.75768 -0.0644071 -2.46617 2.75769 128.407 -60.5636 -46.6202 22.5013 -22.5634 -0.800106 -5.63581 -17.0404 -22.6367 -10.1218 -0.808388 4.28346 -67.2345 -42.3393 114.489 -34.718 18.2462 -17.2158 6.66235 50.3257 -15.9673 2.07122 -0.16817 -6.36269 34.9814 -15.2086 -7.51319 -65.3369 -16.2786 8.28978 
-287.832 92.3517 294.206 89.2044 54.5513 78.9216 174.089 14.3423 76.7179 -32.9012 8.13745 2.10282 52.9516 4.04991 9.05956 51.5638 -1.41588 4.73249 170.663 12.3386 78.2395 -37.1715 1.65236 0.920918 77.529 5.02585 12.7166 27.2592 1.66147 8.86236 -1.21065 6.53122 -88.6461 13.828 -1.74047 2.94552 2.15466 -1.60919 3.01918 -20.3721 -2.54501 2.28668 -0.359493 -2.54504 2.28666 124.614 -63.2276 -52.5165 20.352 -20.8467 0.0845801 -4.57711 -15.491 -21.2855 -9.92624 -0.874168 5.2908 -68.2768 -46.1138 112.056 -30.3085 19.7566 -16.3323 12.045 44.258 -24.5933 2.43681 -0.196546 -6.87468 32.9118 -10.6037 -6.39497 -62.9579 -11.8329 7.62203 
